<svg width="70" height="57" viewBox="0 0 70 57" fill="none" xmlns="http://www.w3.org/2000/svg">
<path fill-rule="evenodd" clip-rule="evenodd" d="M20.3965 35.5454L24.4785 23.887L30.6904 21.8108L26.1342 35.1994L20.3995 35.5454H20.3965ZM27.3232 34.9488L33.1774 34.1367L38.2242 19.2178L32.0122 21.1873L27.3239 34.9488H27.3232ZM35.2035 33.6713L39.0576 22.4521L45.2429 20.3096L41.2559 32.0083L35.2028 33.672L35.2035 33.6713ZM39.4421 21.0016L45.654 18.9389L46.5446 16.2907L40.3846 18.4071L39.4443 21.0024L39.4421 21.0016ZM19.0725 36.7692L23.4832 23.7535C22.1191 22.4111 20.755 21.0784 19.3909 19.7346L11.9996 41.4145C21.4163 41.3742 31.6545 40.709 40.7409 38.0586C46.4496 36.3948 53.5485 33.5095 56.1579 28.8224C60.2243 21.4894 52.0018 15.1005 46.3836 11.8803C42.5111 9.7872 38.5021 7.95965 34.3842 6.41015C32.4768 5.75836 30.5568 5.11925 28.6094 4.53383C23.5876 2.96462 18.4577 1.76868 13.2613 0.955688C18.072 2.00589 22.8137 3.35254 27.4598 4.988C31.6582 6.43849 38.7407 9.11353 44.2669 12.7603C48.7437 15.7284 55.0484 21.5177 50.9294 27.2138C49.1281 29.689 45.7112 31.8986 39.7642 33.6683C33.2709 35.6118 25.8403 36.397 19.0725 36.7692Z" fill="url(#paint0_linear_3_517)"/>
<path fill-rule="evenodd" clip-rule="evenodd" d="M1.68163 54.3505H2.10541C2.51531 54.3587 2.92206 54.277 3.29733 54.1111C3.62598 53.9541 3.91575 53.7256 4.14563 53.4422C4.26675 53.2961 4.36899 53.1352 4.44992 52.9634C4.54779 52.7782 4.62257 52.5816 4.67257 52.378C4.73738 52.1509 4.78697 51.9197 4.82101 51.6859C4.8531 51.4253 4.8707 51.1632 4.8737 50.9006V50.5412C4.8737 50.4345 4.86034 50.3018 4.84698 50.1422C4.82342 49.8774 4.77925 49.6148 4.71488 49.3569C4.68522 49.2296 4.64526 49.1048 4.59539 48.984C4.54269 48.864 4.48926 48.7446 4.4232 48.6246C4.36011 48.5175 4.28916 48.4153 4.21094 48.3188C4.12493 48.219 4.03193 48.1256 3.93263 48.0392C3.69949 47.8547 3.43459 47.7149 3.15113 47.6267C2.97871 47.5698 2.80126 47.5296 2.62122 47.5067C2.40169 47.4784 2.18052 47.4649 1.9592 47.4664H1.68089V54.3468L1.68163 54.3505ZM0.419945 45.8198H1.63265C2.35939 45.808 3.08345 45.9112 3.77826 46.1255C4.3722 46.3074 4.9132 46.6317 5.35462 47.0704C5.78441 47.517 6.10216 48.0599 6.28159 48.6544C6.48953 49.3443 6.58796 50.0628 6.57327 50.7835C6.57105 51.1306 6.549 51.4772 6.50721 51.8216C6.46764 52.1498 6.40111 52.474 6.30831 52.7911C6.21785 53.0983 6.10268 53.3976 5.96395 53.686C5.81964 53.9622 5.65125 54.225 5.46076 54.4713C5.26236 54.7149 5.03562 54.9337 4.78538 55.1231C4.52622 55.3104 4.25161 55.475 3.96454 55.6153C3.64616 55.7548 3.313 55.8573 2.97152 55.9211C2.6003 55.9914 2.22341 56.0271 1.84565 56.0277H-0.00012207V45.8593H0.423656L0.419945 45.8198ZM8.07542 45.8198H9.65549L9.74827 46.1255L11.934 52.9798L14.1196 46.1255L14.2124 45.8198H16.2126V55.9874H14.5954V49.6791L12.6746 55.6943L12.5819 56.0001H11.3372L11.2445 55.6943L9.31039 49.6657V55.9874H7.69468V45.8198H8.07542ZM18.1689 45.8198H19.4143V55.9874H17.7377V45.8198H18.1689ZM24.5664 45.8198H28.7782V47.4433H25.8274V49.8924H28.635V51.5159H25.8274V55.974H24.1582V45.8064H24.5657L24.5664 45.8198ZM30.2351 45.8198H31.4827V55.9874H29.8135V45.8198H30.2351ZM33.4539 45.8198H34.7787L34.8981 46.0726L37.9974 52.6606V45.8198H39.6131V55.9874H37.8668L37.7473 55.7346L34.648 49.1869V55.9733H33.0323V45.8064H33.4561L33.4539 45.8198ZM43.1941 51.7948H45.2336L44.2272 48.5343L43.1941 51.7948ZM43.7878 45.819H44.9664L45.0592 46.1121L48.1451 55.4281L48.3307 56.0001H46.5546L46.4619 55.6943L45.7464 53.4317H42.6746L41.9324 55.6943L41.8396 55.9874H40.1178L40.3034 55.4154L43.3893 46.0994L43.4821 45.8064H43.7864L43.7878 45.819ZM49.245 45.819H50.5698L50.6893 46.0719L53.7886 52.6599V45.819H55.4043V55.9867H53.6557L53.5362 55.7339L50.4503 49.1861V55.9725H48.8346V45.8064H49.245V45.819ZM62.728 55.7607C62.6753 55.7741 62.5796 55.8137 62.463 55.8405C62.397 55.8674 62.2775 55.8935 62.1053 55.9472C61.9352 55.9936 61.7614 56.0248 61.5858 56.0404C61.3924 56.0629 61.1978 56.0719 61.0032 56.0672C60.6473 56.0667 60.2923 56.031 59.9434 55.9606C59.6197 55.8896 59.3077 55.7731 59.0164 55.6145C58.7448 55.4718 58.4913 55.2965 58.2616 55.0925C58.035 54.8888 57.8307 54.6613 57.6523 54.4139C57.4774 54.1648 57.3223 53.9022 57.1884 53.6286C57.0586 53.3394 56.9524 53.0401 56.8708 52.7337C56.7886 52.4231 56.7267 52.1075 56.6852 51.7888C56.644 51.4673 56.622 51.1435 56.6192 50.8193C56.6184 50.1948 56.6985 49.5729 56.8574 48.9691C56.9369 48.6691 57.0386 48.3754 57.1617 48.0906C57.2906 47.8143 57.4459 47.5513 57.6256 47.3053C57.8016 47.0557 58.0111 46.8319 58.2483 46.6401C58.4827 46.436 58.7406 46.2608 59.0164 46.1181C59.313 45.9639 59.6294 45.8519 59.9567 45.7855C60.3143 45.7145 60.678 45.6787 61.0425 45.6788C61.3312 45.6814 61.6192 45.7081 61.9034 45.7586C62.0597 45.7864 62.2146 45.822 62.3673 45.8653C62.5134 45.9045 62.6553 45.9579 62.7911 46.0249L63.0427 46.1449L63.0293 46.4246L62.9892 47.356L62.9492 48.2345L62.2871 47.6625C62.2378 47.6257 62.1845 47.5945 62.1283 47.5693C62.0882 47.5559 62.0355 47.5291 61.9695 47.503C61.9092 47.4766 61.8472 47.4544 61.784 47.4366C61.7234 47.4145 61.6614 47.3969 61.5984 47.3836L61.3995 47.3434C61.3335 47.3299 61.2674 47.3299 61.1872 47.3165C61.1212 47.3165 61.0388 47.3031 60.975 47.3031C60.9217 47.302 60.8685 47.3065 60.8162 47.3165C60.7368 47.3299 60.6573 47.3299 60.5779 47.3434C60.4931 47.356 60.4091 47.3736 60.3263 47.3963C60.2469 47.4232 60.1542 47.4493 60.048 47.4895C59.9528 47.5283 59.8598 47.5726 59.7697 47.6223C59.6636 47.6887 59.5708 47.755 59.4654 47.8221C59.1337 48.0905 58.8742 48.4382 58.7106 48.8334C58.6388 49.0118 58.5769 49.194 58.5251 49.3793C58.4678 49.5929 58.4278 49.8109 58.4056 50.0311C58.3777 50.2964 58.3643 50.563 58.3655 50.8298C58.3625 51.1775 58.3891 51.5248 58.4449 51.8679C58.4903 52.1403 58.5614 52.4077 58.6572 52.6666C58.7495 52.8818 58.8556 53.0908 58.9748 53.2923C59.0805 53.4573 59.205 53.6092 59.3459 53.7449C59.4694 53.8676 59.6072 53.9748 59.7563 54.0641C59.8839 54.145 60.022 54.2078 60.1668 54.2506C60.3082 54.3019 60.4548 54.3376 60.6039 54.3572C60.7216 54.3823 60.8414 54.3958 60.9616 54.3975H61.1843C61.2503 54.3975 61.3164 54.3841 61.3698 54.3841C61.4359 54.3706 61.4893 54.3572 61.542 54.3438C61.5941 54.3272 61.6471 54.3137 61.7008 54.3035C61.7409 54.2901 61.7936 54.2767 61.8596 54.2506C61.9257 54.2245 61.9791 54.2103 62.0185 54.1976C62.074 54.1765 62.1272 54.1498 62.1773 54.1178C62.233 54.0878 62.2905 54.0611 62.3495 54.038L62.9432 53.7449L62.9699 54.4102L63.01 55.3051L63.0234 55.6242L62.7191 55.757L62.728 55.7607ZM64.7808 45.819H69.1381V47.4425H66.0381V49.8916H68.9919V51.5151H66.0381V54.3371H69.2828V55.9606H64.3556V45.7929H64.7793L64.7808 45.819Z" fill="url(#paint1_linear_3_517)"/>
<defs>
<linearGradient id="paint0_linear_3_517" x1="34.6235" y1="2.33129" x2="34.6235" y2="19.4858" gradientUnits="userSpaceOnUse">
<stop stop-color="#134780"/>
<stop offset="0.122" stop-color="#114D84"/>
<stop offset="0.338" stop-color="#125D92"/>
<stop offset="0.623" stop-color="#1477AC"/>
<stop offset="0.963" stop-color="#04A2D9"/>
<stop offset="1" stop-color="#00A8E1"/>
</linearGradient>
<linearGradient id="paint1_linear_3_517" x1="34.6414" y1="53.897" x2="34.6414" y2="46.7074" gradientUnits="userSpaceOnUse">
<stop/>
<stop offset="1" stop-color="#58595B"/>
</linearGradient>
</defs>
</svg>
