<?xml version="1.0" encoding="UTF-8" standalone="no"?>
<svg
   xmlns:dc="http://purl.org/dc/elements/1.1/"
   xmlns:cc="http://creativecommons.org/ns#"
   xmlns:rdf="http://www.w3.org/1999/02/22-rdf-syntax-ns#"
   xmlns:svg="http://www.w3.org/2000/svg"
   xmlns="http://www.w3.org/2000/svg"
   xmlns:xlink="http://www.w3.org/1999/xlink"
   viewBox="0 0 841.88977 595.27557"
   id="svg28"
   height="595.27557"
   width="841.88977"
   version="1.1">
  <metadata
     id="metadata34">
    <rdf:RDF>
      <cc:Work
         rdf:about="">
        <dc:format>image/svg+xml</dc:format>
        <dc:type
           rdf:resource="http://purl.org/dc/dcmitype/StillImage" />
      </cc:Work>
    </rdf:RDF>
  </metadata>
  <defs
     id="defs32" />
  <path
     id="path2"
     style="fill:none"
     d="M 0,0 V 595.2756 H 841.8898 V 0 Z" />
  <g
     id="Layer1000">
    <g
       id="Layer1001">
      <defs
         id="defs10">
        <linearGradient
           id="grad1">
          <stop
             id="stop4"
             stop-opacity="1.0000"
             stop-color="#004b8c"
             offset="0%" />
          <stop
             id="stop6"
             stop-opacity="1.0000"
             stop-color="#00aeef"
             offset="100%" />
        </linearGradient>
        <linearGradient
           gradientUnits="objectBoundingBox"
           y2="1"
           x2="0"
           y1="0"
           x1="0"
           id="grad2"
           xlink:href="#grad1" />
      </defs>
      <path
         id="path12"
         style="fill:url(#grad2)"
         d="m 313.3971,350.4343 30.8307,-87.6474 46.9067,-15.6355 -34.3542,100.6402 z m 52.2876,-4.5025 35.3479,-103.3248 46.9067,-14.8381 -38.0743,112.066 z m 59.5207,-9.5658 29.0668,-84.2625 46.704,-16.0702 -30.0743,87.8586 z m 32.0338,-95.1862 7.1331,-19.4478 46.4854,-15.9243 -6.7054,19.8561 z M 303.3981,359.6294 c 11.1117,-32.5852 22.2236,-65.1705 33.3353,-97.7557 -10.286,-10.0599 -20.5718,-20.1199 -30.8578,-30.1798 -18.5935,54.3055 -37.1872,108.6111 -55.7807,162.9166 71.1213,-0.3051 148.378,-5.2966 217.0344,-25.1749 43.1007,-12.4793 96.728,-34.1747 116.4231,-69.4456 30.7414,-55.0535 -31.3577,-103.0905 -73.7757,-127.2828 -27.7878,-15.8481 -59.0123,-28.4526 -90.6465,-41.1493 -14.3866,-4.9301 -28.8959,-9.6762 -43.5916,-14.1424 -37.0955,-11.2741 -75.3787,-20.7674 -115.8698,-26.9483 37.416,7.9384 72.817,18.4966 107.2382,30.3278 31.7155,10.9011 85.1724,30.95 126.8595,58.4201 33.8477,22.3042 81.4407,65.7762 50.3096,108.5556 -13.5597,18.6322 -39.4058,35.1906 -84.2504,48.5415 -49.2652,14.6657 -105.3147,20.5334 -156.4276,23.3172 z" />
      <path
         id="path14"
         style="fill:#5677ac;fill-opacity:0;fill-rule:evenodd"
         d="m 461.5248,237.0297 40.5836,-13.4226 4.6055,-13.6375 -40.3314,13.8162 z m -32.2655,95.5403 39.6332,-10.8189 27.9109,-81.5382 -40.4911,13.9324 z m -95.5095,-69.9853 c -8.9168,-8.721 -17.8338,-17.442 -26.7507,-26.1629 -17.7556,51.858 -35.5113,103.7163 -53.2668,155.5745 33.7041,-0.2203 67.4581,-1.5068 101.0103,-4.7623 37.5843,-3.6469 75.3561,-9.7776 111.6651,-20.2904 37.9804,-10.9967 94.7735,-32.2116 114.8794,-68.2185 6.6293,-11.872 9.4342,-24.6829 7.0881,-38.163 -6.4455,-37.0342 -49.2574,-68.134 -79.8838,-85.6012 -28.6481,-16.3388 -59.3834,-29.4911 -90.2653,-40.9712 -14.2726,-5.3057 -28.8793,-9.6661 -43.4419,-14.0918 -6.1524,-1.8699 -12.3178,-3.6829 -18.4972,-5.4336 3.8264,1.2727 7.6475,2.5655 11.4633,3.8773 15.0331,5.167 29.9471,10.6786 44.6716,16.6715 17.8906,7.2815 35.575,15.2758 52.6474,24.3192 10.2907,5.4511 20.3989,11.3075 30.1248,17.7164 11.4771,7.5629 22.6019,16.2004 32.405,25.8451 13.7281,13.506 27.1335,31.3667 28.971,51.1565 1.2054,12.9808 -2.7893,24.794 -10.3964,35.2469 -18.929,26.0111 -55.9153,40.6621 -85.6078,49.5015 -25.9683,7.7308 -52.8735,12.8259 -79.7054,16.4429 -25.6478,3.4575 -51.4852,5.5712 -77.3213,6.9784 l -3.8369,0.209 1.2403,-3.6369 c 10.9356,-32.0692 21.8716,-64.1383 32.8072,-96.2074 z m -16.6079,85.0222 37.7448,-2.2992 32.1011,-94.0393 -40.7343,13.578 z m 52.3611,-4.8211 38.4207,-5.302 35.9098,-105.695 -40.77,12.8969 z" />
    </g>
    <defs
       id="defs23">
      <linearGradient
         id="grad3">
        <stop
           id="stop17"
           stop-opacity="1.0000"
           stop-color="#1b1918"
           offset="0%" />
        <stop
           id="stop19"
           stop-opacity="1.0000"
           stop-color="#565757"
           offset="100%" />
      </linearGradient>
      <linearGradient
         gradientUnits="objectBoundingBox"
         gradientTransform="rotate(180,0.5,0.5)"
         y2="1"
         x2="0"
         y1="0"
         x1="0"
         id="grad4"
         xlink:href="#grad3" />
    </defs>
    <path
       id="path25"
       style="fill:url(#grad4)"
       d="m 172.0612,491.8069 h 3.1742 c 3.4168,0 6.4072,-0.5973 8.962,-1.7902 2.5474,-1.1891 4.6905,-2.8635 6.4182,-5.0176 0.8859,-1.1028 1.6615,-2.3122 2.3159,-3.6172 0.6782,-1.3491 1.2516,-2.8286 1.7148,-4.4314 0.4724,-1.6302 0.8289,-3.3635 1.0642,-5.1849 0.2334,-1.7975 0.351,-3.7679 0.351,-5.8981 0,-1.0164 -0.0165,-1.9317 -0.0496,-2.7202 -0.0349,-0.8289 -0.0992,-1.8288 -0.1893,-3.0069 -0.1525,-1.9869 -0.476,-3.9646 -0.9649,-5.9238 v -0.0129 c -0.2279,-0.9172 -0.5257,-1.8417 -0.8878,-2.7643 -0.3621,-0.9245 -0.7903,-1.8435 -1.2755,-2.7423 -0.4559,-0.8418 -0.9834,-1.6229 -1.577,-2.3379 -0.6121,-0.7352 -1.3105,-1.4263 -2.088,-2.0659 -1.5604,-1.2811 -3.5454,-2.3287 -5.944,-3.1393 -1.1965,-0.4025 -2.5309,-0.7094 -3.9921,-0.9134 -1.4796,-0.2059 -3.1337,-0.3125 -4.9607,-0.3125 h -2.0714 z m -9.4601,-64.1804 h 9.1256 c 6.1756,0 11.5921,0.7591 16.2422,2.2717 4.8045,1.5642 8.7874,3.9425 11.934,7.1277 3.1319,3.1687 5.4717,7.1296 7.0156,11.8715 1.498,4.6005 2.246,9.9251 2.246,15.9666 0,2.6338 -0.1709,5.2309 -0.5146,7.7875 -0.3364,2.5125 -0.8492,4.9497 -1.5311,7.3005 -0.6892,2.382 -1.5751,4.6243 -2.6467,6.7123 -1.0862,2.1192 -2.3599,4.0748 -3.8156,5.8595 -1.4814,1.8214 -3.1797,3.4535 -5.082,4.8835 -1.8839,1.417 -3.9627,2.6375 -6.2344,3.652 -2.2902,1.0238 -4.777,1.7902 -7.4531,2.2957 -2.6503,0.4999 -5.4716,0.7517 -8.4565,0.7517 h -10.8294 -3.2422 v -3.2422 -69.9958 -3.2422 z m 57.7549,0 h 9.5262 2.3545 l 0.7223,2.2552 16.4775,51.4708 16.4775,-51.4708 0.7205,-2.2552 h 2.3563 9.5281 3.2422 v 3.2422 69.9958 3.2422 h -3.2422 -5.8172 -3.2422 v -3.2422 -44.1814 l -14.5385,45.1684 -0.726,2.2552 h -2.3507 -4.7145 -2.3489 l -0.7278,-2.2552 -14.6396,-45.2621 v 44.2751 3.2422 h -3.2422 -5.8153 -3.2422 v -3.2422 -69.9958 -3.2422 z m 76.2063,0 h 6.2179 3.2422 v 3.2422 69.9958 3.2422 h -3.2422 -6.2179 -3.2422 v -3.2422 -69.9958 -3.2422 z m 48.3279,0 h 28.5787 3.2422 v 3.2422 5.8172 3.2422 h -3.2422 -19.1186 v 18.3835 h 18.0159 3.2421 v 3.2422 5.8172 3.2422 h -3.2421 -18.0159 v 30.2513 3.2422 h -3.2422 -6.2179 -3.2422 v -3.2422 -69.9958 -3.2422 z m 42.8139,0 h 6.2179 3.2422 v 3.2422 69.9958 3.2422 h -3.2422 -6.2179 -3.2422 v -3.2422 -69.9958 -3.2422 z m 24.2613,0 h 8.0228 2.0457 l 0.8804,1.8619 23.414,49.5446 v -48.1643 -3.2422 h 3.2422 5.8154 3.2422 v 3.2422 69.9958 3.2422 h -3.2422 -8.0228 -2.042 l -0.8841,-1.8619 -23.414,-49.2266 v 47.8463 3.2422 h -3.2422 -5.8154 -3.2422 v -3.2422 -69.9958 -3.2422 z m 73.5119,44.9258 h 15.3563 L 493.252,448.006 Z m 4.4994,-44.9258 h 6.6186 2.3232 l 0.7425,2.2295 23.2652,69.9958 1.4134,4.2549 h -4.4792 -6.6186 -2.3581 l -0.7186,-2.2662 -5.3963,-16.9885 h -23.1807 l -5.5819,17.0124 -0.737,2.2423 h -2.3398 -6.2179 -4.481 l 1.4153,-4.2549 23.2651,-69.9958 0.7407,-2.2295 z m 41.2093,0 h 8.0228 2.0457 l 0.8804,1.8619 23.414,49.5446 v -48.1643 -3.2422 h 3.2422 5.8154 3.2422 v 3.2422 69.9958 3.2422 h -3.2422 -8.0228 -2.042 l -0.8841,-1.8619 -23.414,-49.2266 v 47.8463 3.2422 h -3.2422 -5.8154 -3.2422 v -3.2422 -69.9958 -3.2422 z m 101.8517,74.7874 c -0.3951,0.1397 -1.0568,0.3529 -1.9721,0.6305 v 0.0128 c -0.533,0.1599 -1.4226,0.4172 -2.7055,0.772 -1.1947,0.3326 -2.4978,0.5808 -3.9057,0.7407 -1.3932,0.158 -2.871,0.2389 -4.4259,0.2389 -2.8066,0 -5.4661,-0.2812 -7.9658,-0.8399 -2.5291,-0.5661 -4.8615,-1.4208 -6.9917,-2.5622 -2.0953,-1.1212 -4.0031,-2.4298 -5.7106,-3.913 h -0.0128 c -1.6983,-1.4796 -3.2367,-3.1706 -4.6042,-5.071 -1.3344,-1.8546 -2.4886,-3.8322 -3.4517,-5.922 -0.9576,-2.0769 -1.7479,-4.3101 -2.371,-6.6866 -0.6121,-2.3471 -1.0716,-4.7052 -1.3656,-7.0615 l 0.011,-0.002 c -0.3069,-2.4519 -0.4632,-4.8854 -0.4632,-7.2858 0,-4.7273 0.59,-9.3608 1.7682,-13.897 0.6047,-2.3269 1.384,-4.5177 2.3342,-6.5616 0.9539,-2.0548 2.1063,-4.0123 3.4517,-5.8594 1.3675,-1.8785 2.9206,-3.5602 4.6538,-5.0324 1.7332,-1.4723 3.6704,-2.7607 5.7988,-3.8635 2.167,-1.1211 4.5435,-1.9593 7.1295,-2.5106 2.5365,-0.5441 5.2714,-0.8161 8.1901,-0.8161 1.9556,0 4.1226,0.2022 6.4973,0.6028 1.1946,0.2022 2.3581,0.4761 3.4737,0.8161 1.1212,0.34 2.1762,0.7481 3.154,1.2168 l 1.9262,0.9226 -0.09,2.1174 -0.2996,7.0192 -0.2849,6.6462 -5.0471,-4.3156 c -0.261,-0.2243 -0.6801,-0.4761 -1.2462,-0.7462 -0.2646,-0.1269 -0.6598,-0.2978 -1.1653,-0.5018 -0.3933,-0.1581 -0.8454,-0.3272 -1.3509,-0.4999 -0.4925,-0.1691 -0.9557,-0.3107 -1.3748,-0.4136 -0.4907,-0.1213 -0.998,-0.2279 -1.5145,-0.3143 v -0.002 c -0.4631,-0.0772 -0.9833,-0.1379 -1.5531,-0.1838 -0.5109,-0.0405 -1.055,-0.0625 -1.6266,-0.0625 -0.3124,0 -0.7058,0.022 -1.1781,0.0625 -0.6415,0.0551 -1.2407,0.1231 -1.8012,0.1985 -0.6047,0.0827 -1.2333,0.2132 -1.8748,0.3878 -0.6341,0.1746 -1.3491,0.4172 -2.1412,0.7278 -0.6874,0.2684 -1.4024,0.6158 -2.1376,1.0367 -0.7885,0.4521 -1.5476,0.9502 -2.2662,1.4906 -1.4281,1.0697 -2.7607,2.5529 -3.9903,4.4424 -0.6139,0.9428 -1.1818,2.0162 -1.6909,3.2036 v 0.0128 c -0.5404,1.2572 -1.0146,2.6118 -1.4153,4.0565 -0.3988,1.4391 -0.7058,3.062 -0.9135,4.8577 -0.2076,1.7994 -0.3124,3.7899 -0.3124,5.9624 0,2.9022 0.1875,5.5011 0.5624,7.7912 0.3658,2.235 0.9153,4.2274 1.6413,5.9606 0.7573,1.8067 1.5733,3.3856 2.4427,4.7328 0.8381,1.2958 1.7626,2.4317 2.7643,3.3911 1.0201,0.976 2.0549,1.7902 3.0915,2.428 0.9907,0.612 2.0365,1.0936 3.1264,1.4373 v 0.0128 c 1.1726,0.3713 2.2809,0.6525 3.3139,0.8381 l 0.002,-0.011 c 0.9686,0.1728 1.8637,0.261 2.678,0.261 0.6359,0 1.1965,-0.0165 1.667,-0.0496 0.5459,-0.0386 1.0091,-0.0901 1.384,-0.1489 0.4558,-0.0717 0.8988,-0.1599 1.316,-0.2518 0.3364,-0.0754 0.7315,-0.1801 1.1763,-0.3125 h 0.0129 c 0.2922,-0.0845 0.6911,-0.2205 1.1598,-0.3878 0.5275,-0.1874 0.9098,-0.3345 1.156,-0.4374 0.2555,-0.1066 0.6893,-0.3033 1.2333,-0.5551 0.5624,-0.261 0.9925,-0.465 1.2829,-0.6102 l 4.4516,-2.2276 0.2224,4.9754 0.2996,6.7197 0.1048,2.3893 z m 15.4648,-74.7874 h 29.6834 3.2422 v 3.2422 5.8172 3.2422 h -3.2422 -20.2233 v 18.3835 h 19.1187 3.2422 v 3.2422 5.8172 3.2422 h -3.2422 -19.1187 v 21.1937 h 21.3261 3.2422 v 3.2422 5.8154 3.2422 h -3.2422 -30.7862 -3.2422 v -3.2422 -69.9958 -3.2422 z" />
  </g>
</svg>
