<svg width="20" height="23" viewBox="0 0 20 23" fill="none" xmlns="http://www.w3.org/2000/svg">
<path d="M20 12.3436C20 17.8666 15.523 22.3436 10 22.3436C4.477 22.3436 2.62259e-06 17.8666 2.38117e-06 12.3436C-0.00116415 10.7909 0.359775 9.25941 1.05414 7.87067C1.74851 6.48193 2.75718 5.27426 4 4.3436L4 7.0536C2.98176 8.20837 2.31836 9.63242 2.0894 11.1549C1.86044 12.6773 2.07566 14.2335 2.70922 15.6367C3.34277 17.0399 4.36776 18.2304 5.66119 19.0655C6.95462 19.9006 8.46153 20.3447 10.0011 20.3446C11.5407 20.3445 13.0475 19.9001 14.3408 19.0648C15.6341 18.2295 16.6589 17.0388 17.2922 15.6355C17.9255 14.2322 18.1405 12.676 17.9113 11.1536C17.6821 9.63114 17.0184 8.2072 16 7.0526L16 4.3426C17.243 5.27336 18.2517 6.48119 18.9461 7.87011C19.6405 9.25904 20.0013 10.7908 20 12.3436V12.3436ZM14 5.3436L11 5.3436L11 13.3436L9 13.3436L9 5.3436L6 5.3436L10 0.343597L14 5.3436Z" fill="black"/>
</svg>
